<svg width="29" height="25" viewBox="0 0 29 25" fill="none" xmlns="http://www.w3.org/2000/svg">
<path d="M28.7589 4.61906C28.5842 4.40538 28.3052 4.27893 28.0088 4.27893H7.11835C7.07787 4.27893 7.03746 4.28113 6.99854 4.28581L6.1388 2.07511C6.04969 1.84648 5.85347 1.66423 5.6013 1.57567L1.26839 0.0573557C0.790851 -0.109414 0.251989 0.0998135 0.0644467 0.525258C-0.122772 0.950934 0.111721 1.43189 0.588996 1.59918L4.52428 2.97817L9.34114 15.3631C9.12854 15.4292 8.94838 15.5747 8.86633 15.7782L7.47361 19.2291C7.38826 19.4407 7.42343 19.6758 7.56868 19.8597C7.71374 20.0436 7.94966 20.153 8.20157 20.153H8.91677C8.47356 20.593 8.20157 21.1724 8.20157 21.8095C8.20157 23.1795 9.4513 24.2941 10.987 24.2941C12.5227 24.2941 13.7724 23.1795 13.7724 21.8095C13.7724 21.1724 13.5004 20.593 13.0572 20.153H19.1301C18.6867 20.593 18.4146 21.1724 18.4146 21.8095C18.4146 23.1795 19.6641 24.2941 21.2001 24.2941C22.7361 24.2941 23.9855 23.1795 23.9855 21.8095C23.9855 21.1724 23.7135 20.593 23.2704 20.153H24.1403C24.5677 20.153 24.914 19.844 24.914 19.4628C24.914 19.0816 24.5676 18.7727 24.1403 18.7727H9.30248L10.165 16.6356C10.2764 16.6774 10.3967 16.7022 10.5227 16.7022H24.1401C24.5438 16.7022 24.9011 16.4695 25.0241 16.1269L28.8927 5.36008C28.9835 5.10799 28.9337 4.83273 28.7589 4.61906ZM10.987 22.9137C10.3042 22.9137 9.74906 22.4185 9.74906 21.8095C9.74906 21.2004 10.3042 20.7051 10.987 20.7051C11.6698 20.7051 12.2249 21.2004 12.2249 21.8095C12.2249 22.4185 11.6698 22.9137 10.987 22.9137ZM21.2 22.9137C20.5173 22.9137 19.962 22.4185 19.962 21.8095C19.962 21.2004 20.5173 20.7051 21.2 20.7051C21.8827 20.7051 22.438 21.2004 22.438 21.8095C22.438 22.4185 21.8827 22.9137 21.2 22.9137ZM26.0669 7.79883H21.329V5.93537H26.7364L26.0669 7.79883ZM24.7026 11.5947H21.329V9.45521H25.4715L24.7026 11.5947ZM15.1906 11.5947V9.45521H19.4721V11.5947H15.1906ZM19.4721 13.2513V15.0457H15.1906V13.2513H19.4721ZM9.00899 9.45521H13.3339V11.5947H9.84121L9.00899 9.45521ZM15.1906 7.79883V5.93537H19.4721V7.79883H15.1906ZM13.3338 5.93537V7.79883H8.36457L7.63985 5.93537H13.3338ZM10.4856 13.2513H13.3338V15.0457H11.1834L10.4856 13.2513ZM21.329 15.0458V13.2513H24.1078L23.4631 15.0458H21.329Z" fill="#232323"/>
</svg>
