<svg width="31" height="21" viewBox="0 0 31 21" fill="none" xmlns="http://www.w3.org/2000/svg">
<path d="M30.0918 12.5855H29.1037L25.9391 4.43711C26.3823 4.37291 26.7241 3.96957 26.7241 3.48024C26.7241 2.94631 26.3174 2.51344 25.8159 2.51344H18.0075C17.6342 1.40994 16.6412 0.618713 15.4777 0.618713C14.3141 0.618713 13.321 1.41 12.9478 2.51344H5.18421C4.68263 2.51344 4.276 2.94631 4.276 3.48024C4.276 3.96957 4.61785 4.37291 5.06093 4.43711L1.89633 12.5855H0.908203C0.406633 12.5855 0 13.0183 0 13.5523C0 17.3178 2.87785 20.3813 6.41518 20.3813C9.95251 20.3813 12.8304 17.3178 12.8304 13.5523C12.8304 13.0183 12.4237 12.5855 11.9222 12.5855H10.934L7.77331 4.44704H12.9478C13.321 5.55054 14.314 6.34176 15.4777 6.34176C16.6412 6.34176 17.6342 5.55054 18.0075 4.44704H23.2267L20.0661 12.5855H19.0779C18.5763 12.5855 18.1697 13.0183 18.1697 13.5523C18.1697 17.3178 21.0475 20.3813 24.5849 20.3813C28.1222 20.3813 31 17.3178 31 13.5523C31 13.0183 30.5934 12.5855 30.0918 12.5855ZM6.41518 18.4477C4.19015 18.4477 2.32918 16.7571 1.90644 14.5191H10.9239C10.5012 16.7571 8.64022 18.4477 6.41518 18.4477ZM8.96851 12.5855H3.86186L6.41518 6.01099L8.96851 12.5855ZM15.4776 4.40817C14.9969 4.40817 14.6059 3.99193 14.6059 3.48024C14.6059 2.96855 14.9969 2.55231 15.4776 2.55231C15.9582 2.55231 16.3493 2.96855 16.3493 3.48024C16.3493 3.99193 15.9583 4.40817 15.4776 4.40817ZM24.5848 6.01099L27.1381 12.5855H22.0315L24.5848 6.01099ZM24.5848 18.4477C22.3598 18.4477 20.4988 16.7571 20.0761 14.5191H29.0936C28.6708 16.7571 26.8098 18.4477 24.5848 18.4477Z" fill="#232323"/>
</svg>
